<mxfile host="app.diagrams.net" agent="Mozilla/5.0 (X11; Linux x86_64) AppleWebKit/537.36 (KHTML, like Gecko) Chrome/129.0.0.0 Safari/537.36" version="24.8.6">
  <diagram id="C5RBs43oDa-KdzZeNtuy" name="Page-1">
    <mxGraphModel dx="1247" dy="794" grid="1" gridSize="10" guides="1" tooltips="1" connect="1" arrows="1" fold="1" page="1" pageScale="1" pageWidth="827" pageHeight="1169" math="0" shadow="0">
      <root>
        <mxCell id="WIyWlLk6GJQsqaUBKTNV-0" />
        <mxCell id="WIyWlLk6GJQsqaUBKTNV-1" parent="WIyWlLk6GJQsqaUBKTNV-0" />
        <mxCell id="4ukqYvrznoQ7l3BOgmLP-0" value="rw" style="ellipse;fillColor=strokeColor;html=1;" vertex="1" parent="WIyWlLk6GJQsqaUBKTNV-1">
          <mxGeometry x="174" y="169" width="30" height="30" as="geometry" />
        </mxCell>
        <mxCell id="4ukqYvrznoQ7l3BOgmLP-2" value="" style="rounded=0;html=1;jettySize=auto;orthogonalLoop=1;fontSize=11;endArrow=block;endFill=0;endSize=8;strokeWidth=1;shadow=0;labelBackgroundColor=none;edgeStyle=orthogonalEdgeStyle;exitX=1;exitY=0.5;exitDx=0;exitDy=0;entryX=0;entryY=0.5;entryDx=0;entryDy=0;" edge="1" parent="WIyWlLk6GJQsqaUBKTNV-1" source="4ukqYvrznoQ7l3BOgmLP-0" target="4ukqYvrznoQ7l3BOgmLP-4">
          <mxGeometry relative="1" as="geometry">
            <mxPoint x="-10" y="209" as="sourcePoint" />
            <mxPoint x="260" y="229" as="targetPoint" />
          </mxGeometry>
        </mxCell>
        <mxCell id="4ukqYvrznoQ7l3BOgmLP-5" value="frame" style="edgeLabel;html=1;align=center;verticalAlign=middle;resizable=0;points=[];" vertex="1" connectable="0" parent="4ukqYvrznoQ7l3BOgmLP-2">
          <mxGeometry x="-0.1617" y="-2" relative="1" as="geometry">
            <mxPoint as="offset" />
          </mxGeometry>
        </mxCell>
        <mxCell id="4ukqYvrznoQ7l3BOgmLP-4" value="ChangeDetector" style="rounded=1;whiteSpace=wrap;html=1;fontSize=12;glass=0;strokeWidth=1;shadow=0;" vertex="1" parent="WIyWlLk6GJQsqaUBKTNV-1">
          <mxGeometry x="280" y="164" width="120" height="40" as="geometry" />
        </mxCell>
        <mxCell id="4ukqYvrznoQ7l3BOgmLP-7" value="ObjectDetector" style="rounded=1;whiteSpace=wrap;html=1;fontSize=12;glass=0;strokeWidth=1;shadow=0;" vertex="1" parent="WIyWlLk6GJQsqaUBKTNV-1">
          <mxGeometry x="490" y="229" width="120" height="40" as="geometry" />
        </mxCell>
        <mxCell id="4ukqYvrznoQ7l3BOgmLP-8" value="" style="rounded=0;html=1;jettySize=auto;orthogonalLoop=1;fontSize=11;endArrow=block;endFill=0;endSize=8;strokeWidth=1;shadow=0;labelBackgroundColor=none;exitX=1;exitY=0.25;exitDx=0;exitDy=0;entryX=0;entryY=0.5;entryDx=0;entryDy=0;" edge="1" parent="WIyWlLk6GJQsqaUBKTNV-1" source="4ukqYvrznoQ7l3BOgmLP-4">
          <mxGeometry relative="1" as="geometry">
            <mxPoint x="430" y="194" as="sourcePoint" />
            <mxPoint x="490" y="119" as="targetPoint" />
          </mxGeometry>
        </mxCell>
        <mxCell id="4ukqYvrznoQ7l3BOgmLP-9" value="No change" style="edgeLabel;html=1;align=center;verticalAlign=middle;resizable=0;points=[];" vertex="1" connectable="0" parent="4ukqYvrznoQ7l3BOgmLP-8">
          <mxGeometry x="-0.1617" y="-2" relative="1" as="geometry">
            <mxPoint as="offset" />
          </mxGeometry>
        </mxCell>
        <mxCell id="4ukqYvrznoQ7l3BOgmLP-10" value="" style="rounded=0;html=1;jettySize=auto;orthogonalLoop=1;fontSize=11;endArrow=block;endFill=0;endSize=8;strokeWidth=1;shadow=0;labelBackgroundColor=none;exitX=1;exitY=0.5;exitDx=0;exitDy=0;entryX=0;entryY=0.5;entryDx=0;entryDy=0;" edge="1" parent="WIyWlLk6GJQsqaUBKTNV-1" source="4ukqYvrznoQ7l3BOgmLP-4" target="4ukqYvrznoQ7l3BOgmLP-7">
          <mxGeometry relative="1" as="geometry">
            <mxPoint x="410" y="184" as="sourcePoint" />
            <mxPoint x="500" y="129" as="targetPoint" />
          </mxGeometry>
        </mxCell>
        <mxCell id="4ukqYvrznoQ7l3BOgmLP-11" value="Change&lt;div&gt;detected&lt;/div&gt;" style="edgeLabel;html=1;align=center;verticalAlign=middle;resizable=0;points=[];" vertex="1" connectable="0" parent="4ukqYvrznoQ7l3BOgmLP-10">
          <mxGeometry x="-0.1617" y="-2" relative="1" as="geometry">
            <mxPoint as="offset" />
          </mxGeometry>
        </mxCell>
        <mxCell id="4ukqYvrznoQ7l3BOgmLP-12" value="BoundingBoxFilter" style="rounded=1;whiteSpace=wrap;html=1;fontSize=12;glass=0;strokeWidth=1;shadow=0;" vertex="1" parent="WIyWlLk6GJQsqaUBKTNV-1">
          <mxGeometry x="490" y="319" width="120" height="40" as="geometry" />
        </mxCell>
        <mxCell id="4ukqYvrznoQ7l3BOgmLP-13" value="" style="rounded=0;html=1;jettySize=auto;orthogonalLoop=1;fontSize=11;endArrow=block;endFill=0;endSize=8;strokeWidth=1;shadow=0;labelBackgroundColor=none;exitX=0.5;exitY=1;exitDx=0;exitDy=0;entryX=0.5;entryY=0;entryDx=0;entryDy=0;" edge="1" parent="WIyWlLk6GJQsqaUBKTNV-1" source="4ukqYvrznoQ7l3BOgmLP-7" target="4ukqYvrznoQ7l3BOgmLP-12">
          <mxGeometry relative="1" as="geometry">
            <mxPoint x="600" y="289" as="sourcePoint" />
            <mxPoint x="690" y="354" as="targetPoint" />
          </mxGeometry>
        </mxCell>
        <mxCell id="4ukqYvrznoQ7l3BOgmLP-15" value="ObjectTracker" style="rounded=1;whiteSpace=wrap;html=1;fontSize=12;glass=0;strokeWidth=1;shadow=0;" vertex="1" parent="WIyWlLk6GJQsqaUBKTNV-1">
          <mxGeometry x="490" y="409" width="120" height="40" as="geometry" />
        </mxCell>
        <mxCell id="4ukqYvrznoQ7l3BOgmLP-16" value="" style="rounded=0;html=1;jettySize=auto;orthogonalLoop=1;fontSize=11;endArrow=block;endFill=0;endSize=8;strokeWidth=1;shadow=0;labelBackgroundColor=none;exitX=0.5;exitY=1;exitDx=0;exitDy=0;entryX=0.5;entryY=0;entryDx=0;entryDy=0;" edge="1" parent="WIyWlLk6GJQsqaUBKTNV-1" source="4ukqYvrznoQ7l3BOgmLP-12" target="4ukqYvrznoQ7l3BOgmLP-15">
          <mxGeometry relative="1" as="geometry">
            <mxPoint x="560" y="279" as="sourcePoint" />
            <mxPoint x="560" y="329" as="targetPoint" />
          </mxGeometry>
        </mxCell>
        <mxCell id="4ukqYvrznoQ7l3BOgmLP-17" value="DetectedPersonIdentifier" style="rounded=1;whiteSpace=wrap;html=1;fontSize=12;glass=0;strokeWidth=1;shadow=0;" vertex="1" parent="WIyWlLk6GJQsqaUBKTNV-1">
          <mxGeometry x="475" y="499" width="150" height="40" as="geometry" />
        </mxCell>
        <mxCell id="4ukqYvrznoQ7l3BOgmLP-18" value="" style="shape=umlDestroy;html=1;" vertex="1" parent="WIyWlLk6GJQsqaUBKTNV-1">
          <mxGeometry x="495" y="100" width="30" height="30" as="geometry" />
        </mxCell>
        <mxCell id="4ukqYvrznoQ7l3BOgmLP-19" value="" style="rounded=0;html=1;jettySize=auto;orthogonalLoop=1;fontSize=11;endArrow=block;endFill=0;endSize=8;strokeWidth=1;shadow=0;labelBackgroundColor=none;exitX=0.5;exitY=1;exitDx=0;exitDy=0;entryX=0.5;entryY=0;entryDx=0;entryDy=0;" edge="1" parent="WIyWlLk6GJQsqaUBKTNV-1" source="4ukqYvrznoQ7l3BOgmLP-15" target="4ukqYvrznoQ7l3BOgmLP-17">
          <mxGeometry relative="1" as="geometry">
            <mxPoint x="560" y="369" as="sourcePoint" />
            <mxPoint x="560" y="419" as="targetPoint" />
          </mxGeometry>
        </mxCell>
        <mxCell id="4ukqYvrznoQ7l3BOgmLP-20" value="Notifier" style="rounded=1;whiteSpace=wrap;html=1;fontSize=12;glass=0;strokeWidth=1;shadow=0;" vertex="1" parent="WIyWlLk6GJQsqaUBKTNV-1">
          <mxGeometry x="490" y="579" width="120" height="40" as="geometry" />
        </mxCell>
        <mxCell id="4ukqYvrznoQ7l3BOgmLP-21" value="" style="rounded=0;html=1;jettySize=auto;orthogonalLoop=1;fontSize=11;endArrow=block;endFill=0;endSize=8;strokeWidth=1;shadow=0;labelBackgroundColor=none;exitX=0.5;exitY=1;exitDx=0;exitDy=0;entryX=0.5;entryY=0;entryDx=0;entryDy=0;" edge="1" parent="WIyWlLk6GJQsqaUBKTNV-1" source="4ukqYvrznoQ7l3BOgmLP-17" target="4ukqYvrznoQ7l3BOgmLP-20">
          <mxGeometry relative="1" as="geometry">
            <mxPoint x="560" y="459" as="sourcePoint" />
            <mxPoint x="560" y="509" as="targetPoint" />
          </mxGeometry>
        </mxCell>
        <mxCell id="4ukqYvrznoQ7l3BOgmLP-22" value="Image Processing Flow (CV Pipeline --&amp;gt; Chain of Responsibility)" style="text;strokeColor=none;fillColor=none;html=1;fontSize=24;fontStyle=1;verticalAlign=middle;align=center;" vertex="1" parent="WIyWlLk6GJQsqaUBKTNV-1">
          <mxGeometry x="34" y="10" width="760" height="60" as="geometry" />
        </mxCell>
      </root>
    </mxGraphModel>
  </diagram>
</mxfile>
